<svg width="230" height="29" viewBox="0 0 230 29" fill="none" xmlns="http://www.w3.org/2000/svg">
<path d="M17.1953 26.2227C17.8854 26.2227 18.2305 26.5156 18.2305 27.1016C18.2305 27.3359 18.0872 27.5443 17.8008 27.7266C17.5273 27.9089 17.0326 28 16.3164 28H0.457031V0.363281H10.418V26.7109H14.0703C14.8906 26.7109 15.5938 26.6328 16.1797 26.4766C16.7786 26.3073 17.1172 26.2227 17.1953 26.2227ZM34.9688 26.7109C33.3021 27.8177 31.4531 28.3711 29.4219 28.3711C26.7266 28.3711 24.5651 27.694 22.9375 26.3398C21.2448 24.9466 20.3984 23.013 20.3984 20.5391C20.3984 18.3516 21.2383 16.5547 22.918 15.1484C24.6367 13.7292 26.8958 13.0195 29.6953 13.0195C31.5703 13.0195 33.3281 13.3776 34.9688 14.0938V8.72266C33.7839 8.38411 32.7357 8.21484 31.8242 8.21484C30.9258 8.21484 30.1641 8.25391 29.5391 8.33203C28.9141 8.41016 28.3216 8.52734 27.7617 8.68359C26.5508 9.02214 25.6328 9.47786 25.0078 10.0508C24.6432 10.3893 24.3112 10.5586 24.0117 10.5586C23.7122 10.5586 23.4844 10.487 23.3281 10.3438C23.1719 10.1875 23.0938 10.0182 23.0938 9.83594C23.0938 9.65365 23.1263 9.49089 23.1914 9.34766C23.2565 9.19141 23.3802 9.03516 23.5625 8.87891C23.9531 8.54036 24.6042 8.20182 25.5156 7.86328C27.4036 7.14714 29.2982 6.78906 31.1992 6.78906C36.9805 6.78906 40.6719 8.16927 42.2734 10.9297C42.9766 12.1536 43.3281 13.7617 43.3281 15.7539V28H34.9688V26.7109ZM34.9688 15.6172C33.3281 14.8229 31.694 14.4258 30.0664 14.4258C29.806 14.4258 29.5586 14.4453 29.3242 14.4844V26.9062C29.3893 26.9193 29.4609 26.9258 29.5391 26.9258C29.6172 26.9258 29.6953 26.9258 29.7734 26.9258C31.5573 26.9258 33.2891 26.2943 34.9688 25.0312V15.6172ZM74.6562 10.2656L73.8555 10.2461C73.569 10.2201 73.2044 10.207 72.7617 10.207H68.3867V28H58.4258V0.363281H73.9336L75.8672 0.304688H76.2188C77.1953 0.304688 77.6836 0.591146 77.6836 1.16406C77.6836 1.38542 77.5924 1.59375 77.4102 1.78906C77.2409 1.97135 77.0521 2.0625 76.8438 2.0625C76.5052 2.0625 76.1797 2.02995 75.8672 1.96484C75.2682 1.83464 74.487 1.76953 73.5234 1.76953H68.3867V8.80078H72.3125C72.3125 8.80078 73.1198 8.76823 74.7344 8.70312C75.4375 8.70312 75.7891 8.96354 75.7891 9.48438C75.7891 10.0052 75.4115 10.2656 74.6562 10.2656ZM87.8008 28.3711C83.2305 28.3711 80.9453 26.138 80.9453 21.6719V7.14062H89.3047V26.2617C89.4349 26.3268 89.5977 26.3594 89.793 26.3594H90.4375C91.4792 26.3594 92.7161 25.6562 94.1484 24.25C94.5781 23.8203 94.9818 23.3516 95.3594 22.8438V7.14062H103.758V28H95.3594V24.9922C93.237 27.2448 90.7174 28.3711 87.8008 28.3711ZM110.145 7.14062H118.543V13.2734C119.441 11.0469 120.405 9.41276 121.434 8.37109C122.475 7.31641 123.517 6.78906 124.559 6.78906C125.145 6.78906 125.607 6.94531 125.945 7.25781C126.297 7.55729 126.473 7.89583 126.473 8.27344C126.473 8.65104 126.421 8.95052 126.316 9.17188C126.212 9.39323 126.076 9.58203 125.906 9.73828C125.555 10.0638 125.223 10.2266 124.91 10.2266C124.415 10.2266 124.051 10.1745 123.816 10.0703C123.413 9.88802 123.055 9.79688 122.742 9.79688C122.43 9.79688 122.033 10.0508 121.551 10.5586C121.069 11.0534 120.607 11.7435 120.164 12.6289C119.083 14.7904 118.543 17.1341 118.543 19.6602V28H110.145V7.14062ZM147.137 23.2539C147.645 23.2539 147.898 23.4883 147.898 23.957C147.898 24.3086 147.671 24.7253 147.215 25.207C145.158 27.3164 142.339 28.3711 138.758 28.3711C135.542 28.3711 132.833 27.401 130.633 25.4609C128.354 23.4427 127.215 20.8906 127.215 17.8047C127.215 14.6536 128.243 12.0625 130.301 10.0312C132.475 7.86979 135.366 6.78906 138.973 6.78906C141.863 6.78906 144.292 7.66797 146.258 9.42578C148.38 11.3138 149.441 13.7943 149.441 16.8672C149.441 17.3099 149.428 17.7786 149.402 18.2734H136.512V26.6523C137.397 26.8346 138.393 26.9258 139.5 26.9258C141.844 26.9258 143.842 26.151 145.496 24.6016C145.835 24.263 146.076 23.9961 146.219 23.8008C146.518 23.4362 146.824 23.2539 147.137 23.2539ZM141.922 8.58594C141.076 8.33854 140.118 8.21484 139.051 8.21484C137.983 8.21484 137.137 8.28646 136.512 8.42969V16.8477H141.922V8.58594ZM161.238 28.3711C156.668 28.3711 154.383 26.138 154.383 21.6719V7.14062H162.742V26.2617C162.872 26.3268 163.035 26.3594 163.23 26.3594H163.875C164.917 26.3594 166.154 25.6562 167.586 24.25C168.016 23.8203 168.419 23.3516 168.797 22.8438V7.14062H177.195V28H168.797V24.9922C166.674 27.2448 164.155 28.3711 161.238 28.3711ZM183.582 7.14062H191.98V13.2734C192.879 11.0469 193.842 9.41276 194.871 8.37109C195.913 7.31641 196.954 6.78906 197.996 6.78906C198.582 6.78906 199.044 6.94531 199.383 7.25781C199.734 7.55729 199.91 7.89583 199.91 8.27344C199.91 8.65104 199.858 8.95052 199.754 9.17188C199.65 9.39323 199.513 9.58203 199.344 9.73828C198.992 10.0638 198.66 10.2266 198.348 10.2266C197.853 10.2266 197.488 10.1745 197.254 10.0703C196.85 9.88802 196.492 9.79688 196.18 9.79688C195.867 9.79688 195.47 10.0508 194.988 10.5586C194.507 11.0534 194.044 11.7435 193.602 12.6289C192.521 14.7904 191.98 17.1341 191.98 19.6602V28H183.582V7.14062ZM229.676 27.0234C229.676 27.6745 229.018 28 227.703 28H208.719C209.044 25.3958 211.076 21.457 214.812 16.1836C219.122 10.2982 221.434 7.08854 221.746 6.55469C222.072 6.02083 222.286 5.63021 222.391 5.38281C222.573 4.99219 222.664 4.59505 222.664 4.19141C222.664 3.78776 222.573 3.41016 222.391 3.05859C222.221 2.69401 221.961 2.38802 221.609 2.14062C220.841 1.59375 219.747 1.32031 218.328 1.32031C216.987 1.32031 215.828 1.52865 214.852 1.94531C213.198 2.66146 212.137 3.41016 211.668 4.19141C211.316 4.73828 210.913 5.01172 210.457 5.01172C210.001 5.01172 209.773 4.73177 209.773 4.17188C209.773 3.48177 210.398 2.72656 211.648 1.90625C213.628 0.643229 215.978 0.0117188 218.699 0.0117188C222.02 0.0117188 224.682 0.721354 226.688 2.14062C228.602 3.49479 229.559 5.22656 229.559 7.33594C229.559 8.54688 229.389 9.55599 229.051 10.3633C228.725 11.1576 228.406 11.8411 228.094 12.4141C227.781 12.987 227.404 13.625 226.961 14.3281L223.211 19.9336C221.414 22.5768 220.158 24.7969 219.441 26.5938H225.164C225.893 26.5938 226.57 26.5352 227.195 26.418C227.964 26.2747 228.491 26.2031 228.777 26.2031C229.077 26.2031 229.298 26.2943 229.441 26.4766C229.598 26.6458 229.676 26.8281 229.676 27.0234Z" fill="black"/>
</svg>
